<mxfile host="app.diagrams.net" agent="Mozilla/5.0 (Macintosh; Intel Mac OS X 10_15_7) AppleWebKit/537.36 (KHTML, like Gecko) Chrome/134.0.0.0 Safari/537.36" version="26.1.3">
  <diagram name="第 1 页" id="NKSn_BALig34fcGHcUKA">
    <mxGraphModel dx="1026" dy="684" grid="1" gridSize="10" guides="1" tooltips="1" connect="1" arrows="1" fold="1" page="1" pageScale="1" pageWidth="827" pageHeight="1169" math="0" shadow="0">
      <root>
        <mxCell id="0" />
        <mxCell id="1" parent="0" />
        <mxCell id="Chf6Z2hCwtnDWc8qNgVZ-11" value="" style="rounded=0;whiteSpace=wrap;html=1;fillColor=#d5e8d4;strokeColor=#82b366;" vertex="1" parent="1">
          <mxGeometry x="220" y="310" width="250" height="290" as="geometry" />
        </mxCell>
        <mxCell id="Chf6Z2hCwtnDWc8qNgVZ-13" style="edgeStyle=orthogonalEdgeStyle;rounded=0;orthogonalLoop=1;jettySize=auto;html=1;entryX=0.5;entryY=0;entryDx=0;entryDy=0;" edge="1" parent="1" source="Chf6Z2hCwtnDWc8qNgVZ-1" target="Chf6Z2hCwtnDWc8qNgVZ-12">
          <mxGeometry relative="1" as="geometry">
            <Array as="points">
              <mxPoint x="590" y="280" />
              <mxPoint x="590" y="280" />
            </Array>
          </mxGeometry>
        </mxCell>
        <mxCell id="Chf6Z2hCwtnDWc8qNgVZ-1" value="redis客户端" style="rounded=0;whiteSpace=wrap;html=1;fillColor=#dae8fc;strokeColor=#6c8ebf;" vertex="1" parent="1">
          <mxGeometry x="230" y="200" width="460" height="60" as="geometry" />
        </mxCell>
        <mxCell id="Chf6Z2hCwtnDWc8qNgVZ-4" value="" style="edgeStyle=orthogonalEdgeStyle;rounded=0;orthogonalLoop=1;jettySize=auto;html=1;" edge="1" parent="1" source="Chf6Z2hCwtnDWc8qNgVZ-2" target="Chf6Z2hCwtnDWc8qNgVZ-3">
          <mxGeometry relative="1" as="geometry" />
        </mxCell>
        <mxCell id="Chf6Z2hCwtnDWc8qNgVZ-2" value="计算键属于哪个槽" style="rounded=1;whiteSpace=wrap;html=1;" vertex="1" parent="1">
          <mxGeometry x="240" y="340" width="100" height="50" as="geometry" />
        </mxCell>
        <mxCell id="Chf6Z2hCwtnDWc8qNgVZ-6" value="" style="edgeStyle=orthogonalEdgeStyle;rounded=0;orthogonalLoop=1;jettySize=auto;html=1;" edge="1" parent="1" source="Chf6Z2hCwtnDWc8qNgVZ-3" target="Chf6Z2hCwtnDWc8qNgVZ-5">
          <mxGeometry relative="1" as="geometry" />
        </mxCell>
        <mxCell id="Chf6Z2hCwtnDWc8qNgVZ-3" value="槽是否当前节点负责" style="rhombus;whiteSpace=wrap;html=1;" vertex="1" parent="1">
          <mxGeometry x="250" y="420" width="80" height="80" as="geometry" />
        </mxCell>
        <mxCell id="Chf6Z2hCwtnDWc8qNgVZ-5" value="执行命令" style="rounded=1;whiteSpace=wrap;html=1;" vertex="1" parent="1">
          <mxGeometry x="240" y="534.5" width="100" height="50" as="geometry" />
        </mxCell>
        <mxCell id="Chf6Z2hCwtnDWc8qNgVZ-7" value="是" style="text;html=1;align=center;verticalAlign=middle;whiteSpace=wrap;rounded=0;" vertex="1" parent="1">
          <mxGeometry x="240" y="500" width="60" height="30" as="geometry" />
        </mxCell>
        <mxCell id="Chf6Z2hCwtnDWc8qNgVZ-8" value="否" style="text;html=1;align=center;verticalAlign=middle;whiteSpace=wrap;rounded=0;" vertex="1" parent="1">
          <mxGeometry x="330" y="470" width="60" height="30" as="geometry" />
        </mxCell>
        <mxCell id="Chf6Z2hCwtnDWc8qNgVZ-9" style="edgeStyle=orthogonalEdgeStyle;rounded=0;orthogonalLoop=1;jettySize=auto;html=1;" edge="1" parent="1" source="Chf6Z2hCwtnDWc8qNgVZ-3">
          <mxGeometry relative="1" as="geometry">
            <mxPoint x="411" y="262" as="targetPoint" />
            <Array as="points">
              <mxPoint x="411" y="460" />
            </Array>
          </mxGeometry>
        </mxCell>
        <mxCell id="Chf6Z2hCwtnDWc8qNgVZ-10" value="返回move&lt;span style=&quot;background-color: light-dark(#ffffff, var(--ge-dark-color, #121212)); color: light-dark(rgb(0, 0, 0), rgb(255, 255, 255));&quot;&gt;错误信息，&lt;/span&gt;&lt;div&gt;&lt;span style=&quot;background-color: light-dark(#ffffff, var(--ge-dark-color, #121212)); color: light-dark(rgb(0, 0, 0), rgb(255, 255, 255));&quot;&gt;重定向到&lt;/span&gt;&lt;span style=&quot;background-color: light-dark(#ffffff, var(--ge-dark-color, #121212)); color: light-dark(rgb(0, 0, 0), rgb(255, 255, 255));&quot;&gt;正确节点&lt;/span&gt;&lt;/div&gt;" style="edgeLabel;html=1;align=center;verticalAlign=middle;resizable=0;points=[];" vertex="1" connectable="0" parent="Chf6Z2hCwtnDWc8qNgVZ-9">
          <mxGeometry x="0.1679" y="-1" relative="1" as="geometry">
            <mxPoint as="offset" />
          </mxGeometry>
        </mxCell>
        <mxCell id="Chf6Z2hCwtnDWc8qNgVZ-12" value="节点2" style="rounded=0;whiteSpace=wrap;html=1;fillColor=#d5e8d4;strokeColor=#82b366;" vertex="1" parent="1">
          <mxGeometry x="530" y="340" width="120" height="60" as="geometry" />
        </mxCell>
      </root>
    </mxGraphModel>
  </diagram>
</mxfile>
